<?xml version="1.0" encoding="UTF-8"?>
<svg xmlns="http://www.w3.org/2000/svg" width="300" height="268" viewBox="0 0 300 268" role="img" fill="none">
  <title>Zkeq Projects</title>
  <desc>https://zkeq-projects.dev-tool.cool/</desc>
  <style><![CDATA[
    .hud { font-family: ui-monospace, SFMono-Regular, Menlo, Monaco, Consolas, monospace; font-size: 9px; letter-spacing: 0.12em; text-transform: uppercase; }
    .mono { font-family: ui-monospace, SFMono-Regular, Menlo, Monaco, Consolas, monospace; }
    .sans { font-family: ui-sans-serif, system-ui, -apple-system, 'Segoe UI', 'PingFang SC', 'Hiragino Sans GB', 'Noto Sans SC', sans-serif; }
    .head { font-family: ui-serif, Georgia, 'Songti SC', 'Noto Serif SC', serif; }
    .led { animation: blink 2.4s ease-in-out infinite; }
    @keyframes blink { 0%,100% { opacity: 1; } 50% { opacity: 0.45; } }
  ]]></style>
  <rect width="300" height="268" rx="14" fill="#FFFFFF" stroke="rgba(23,23,23,0.10)"/>
  
    
    
    <rect x="16" y="16" width="28" height="28" rx="8" fill="rgba(239,68,68,0.10)"/>
    <g transform="translate(23,23)" fill="none" stroke="#DC2626" stroke-width="1.6" stroke-linecap="round" stroke-linejoin="round"><path d="M7 1l6 2.5v6c0 3.2-2.4 5.6-6 6.5C3.4 15.1 1 12.7 1 9.5v-6z"/></g>
  
    <text class="hud" x="52" y="27" fill="#DC2626" font-weight="700">PATENT TELEMETRY / CNIPA</text>
    <text class="head" x="52" y="44" fill="#171717" font-size="16" font-weight="700">发明专利与知识产权</text>
    
      <rect x="214" y="16" width="70" height="16" rx="8" fill="rgba(245,158,11,0.12)"/>
      <circle class="led" cx="226" cy="24" r="2.4" fill="#D97706"/>
      <text class="mono" x="248" y="27" text-anchor="middle" fill="#D97706" font-size="8">实质审查</text>
    
    <line x1="16" y1="56" x2="284" y2="56" stroke="rgba(23,23,23,0.10)" />
  
    <rect x="16" y="72" width="268" height="148" rx="10" fill="rgba(0,0,0,0.03)" stroke="rgba(23,23,23,0.10)"/>
    <text class="mono" x="28" y="92" fill="#737373" font-size="8">CONFIDENTIAL FILING ARCHIVE</text>
    <text class="mono" x="28" y="118" fill="#171717" font-size="11">申请号  ████████████████</text>
    <text class="mono" x="28" y="140" fill="#171717" font-size="11">公开日  ████年██月██日</text>
    <text class="mono" x="28" y="162" fill="#171717" font-size="11">发明名称  一种████、装置与可读介质</text>
    <text class="sans" x="28" y="190" fill="#737373" font-size="10">第一项发明专利已公开并进入实质审查。</text>
    
    <line x1="16" y1="232" x2="284" y2="232" stroke="rgba(23,23,23,0.10)"/>
    <text class="mono" x="16" y="252" fill="#737373" font-size="10">国知局专利检索</text>
    <text class="sans" x="284" y="252" text-anchor="end" fill="#171717" font-size="11">epub.cnipa.gov.cn →</text>
  
    
</svg>
